<svg xmlns="http://www.w3.org/2000/svg" version="1.0" viewBox="140 140 1000 1000"><defs/><path fill="#fdf2d7" fill-rule="evenodd" d="M240 1020c-29-19-48-60-42-90 7-33 357-588 392-623 45-44 77-48 113-15 21 19 293 455 345 553 10 17 17 53 17 88 0 51-4 61-28 82-27 25-27 25-397 25-352 0-372-1-400-20m360-80c-11-11-20-29-20-40 0-28 34-60 65-60 30 0 65 32 65 60 0 27-35 60-65 60-14 0-34-9-45-20m14-298c3-70 5-152 5-181 1-54 1-54 53-47 29 4 54 9 56 11 4 3-13 224-24 307-4 37-5 38-49 38-45 0-45 0-41-128"/></svg>