<!DOCTYPE svg PUBLIC "-//W3C//DTD SVG 20010904//EN" "http://www.w3.org/TR/2001/REC-SVG-20010904/DTD/svg10.dtd">
<svg version="1.0" xmlns="http://www.w3.org/2000/svg" width="128px" height="128px" viewBox="0 0 1280 1280" preserveAspectRatio="xMidYMid meet">
<g id="layer101" fill="#fdf2d7" fill-rule="evenodd">
<path d="M240 1020 C211 1001,192 960,198 930 C205 897,555 342,590 307 C635 263,667 259,703 292 C724 311,996 747,1048 845 C1058 862,1065 898,1065 933 C1065 984,1061 994,1037 1015 C1010 1040,1010 1040,640 1040 C288 1040,268 1039,240 1020 M600 940 C589 929,580 911,580 900 C580 872,614 840,645 840 C675 840,710 872,710 900 C710 927,675 960,645 960 C631 960,611 951,600 940 M614 642 C617 572,619 490,619 461 C620 407,620 407,672 414 C701 418,726 423,728 425 C732 428,715 649,704 732 C700 769,699 770,655 770 C610 770,610 770,614 642 " />
</g>

</svg>