<svg width="75" height="75" xmlns="http://www.w3.org/2000/svg">
 <metadata id="metadata1">image/svg+xml</metadata>

 <g>
  <title>background</title>
  <rect fill="none" id="canvas_background" height="402" width="582" y="-1" x="-1"/>
 </g>
 <g>
  <title>Layer 1</title>
  <g id="g1">
   <polygon stroke="#fff2d7" stroke-width="5" stroke-linejoin="round" fill="#fff2d7" points="39.389,13.769 22.235,28.606 6,28.606 6,47.699 21.989,47.699 39.389,62.75 39.389,13.769" id="polygon1"/>
   <path fill-opacity="0" fill="#fff2d7" stroke="#fff2d7" stroke-width="5" stroke-linecap="round" d="m48.128,49.03c1.929,-3.096 3.062,-6.739 3.062,-10.653c0,-3.978 -1.164,-7.674 -3.147,-10.8" id="path1"/>
   <path fill="none" stroke="#fff2d7" stroke-width="5" stroke-linecap="round" d="m55.082,20.537c3.695,4.986 5.884,11.157 5.884,17.84c0,6.621 -2.151,12.738 -5.788,17.699" id="path2"/>
   <path fill="none" stroke="#fff2d7" stroke-width="5" stroke-linecap="round" d="m61.71,62.611c5.267,-6.666 8.418,-15.08 8.418,-24.233c0,-9.217 -3.192,-17.682 -8.519,-24.368" id="path1"/>
  </g>
 </g>
</svg>