<svg version="1" xmlns="http://www.w3.org/2000/svg" width="682.667" height="682.667" viewBox="0 0 512.000000 512.000000"><path d="M286.8 6.7c-.2 3.2-.7 4.7-1.5 4.5-.7-.1-1.3.2-1.3.8 0 .5-2.3 1-5.1 1-5.8 0-7.9 1.5-7.9 5.8 0 3.2-1.4 4.2-5.6 4.2-1.3 0-2.4.4-2.4 1s-2.7 1-6 1-6 .4-6 .9-5.6 1.2-12.5 1.6c-6.9.4-12.5 1.1-12.5 1.6s-2.7.9-6 .9-6 .4-6 1-2.8 1-6.5 1-6.5-.4-6.5-1-1-1-2.1-1c-1.8 0-2.1-.4-1.6-3 1.3-6.2-4.5-11.6-11.6-10.7-3.4.5-3.7.3-3.2-1.4.4-1.1.2-1.9-.4-1.9-.6 0-1.1-1.1-1.1-2.3 0-3.9-3.3-6-9.2-5.9-3.9 0-5.2.4-5 1.4.2.7 0 1-.4.5-.4-.4-1.6 0-2.6 1-1.4 1.2-1.8 3.1-1.8 7.9 0 3.7-.5 6.6-1.2 7-.7.5-.8.2-.3-.7.6-1.1.5-1.1-.5-.2-.7.6-1.3 2.3-1.2 3.7 0 1.4-.4 2.6-.9 2.6s-.9 2.2-.9 5c0 4.7-.2 5-2.5 5-1.4 0-2.5.4-2.5 1s-2.7 1-6 1-6 .4-6 .9c0 .4-5.5 1.1-12.2 1.5-6.8.4-12.4 1.2-12.6 1.7-.2.5-3.5.9-7.3.9s-6.9.4-6.9.9-5.2 1.2-11.5 1.6c-6.3.4-11.5 1.1-11.5 1.6s-3.1.9-7 .9c-3.8 0-7 .4-7 .9s-5.6 1.2-12.5 1.6c-6.9.4-12.5 1.1-12.5 1.6 0 1.5-3.2 1-4.5-.8-1.4-1.8-5.5-2.8-5.5-1.3 0 .6-2.7 1-6 1s-6 .4-6 1-2.7 1-6 1-6 .4-6 1-.6.9-1.2.8c-1-.2-1.4 2.5-1.6 10.4C2 74.2 2.3 78 3 78c.6 0 1 3.8 1 10 0 5.7.4 10 1 10 .5 0 .8 6.9.7 17.5-.1 9.6.1 17.5.6 17.5.4 0 .7 7.9.7 17.5 0 11 .4 17.5 1 17.5s1 6.3 1 17c0 11.2.4 17 1 17 .7 0 1 5.8.8 17.5-.2 9.6 0 17.5.5 17.5.4 0 .7 7.6.7 17 0 11.2.4 17 1 17 .7 0 1 2.5.8 6.7-.3 5.8-.6 6.8-2.2 7.1-2.5.5-7.6 5.6-7.6 7.6 0 .9-.4 1.6-1 1.6s-1 3.5-1 8.5.4 8.5 1 8.5 1 1.2 1 2.8c0 2.8 3.3 5.9 5.9 5.3.7-.1 1 .2.6.8-.3.7.2 1.1 1.4 1.1s2.1.5 2.1 1.1c0 .5.5.7 1.1.4.7-.5 1 2 .8 7.9-.1 4.8.1 8.9.5 9.3.3.3.6 4.5.6 9.3v8.7l5.1 5.2c3.8 3.7 5.9 5.1 8 5.1 2.8 0 2.9-.1 2.9-5.5 0-4.2.3-5.5 1.5-5.5.8 0 1.5.6 1.5 1.3 0 .7 1.8 3.1 4 5.2s4 4.5 4 5.2c0 .7 2 3.1 4.5 5.4 2.5 2.3 4.3 4.5 4 4.8-.2.4 1.6 2.9 4 5.6 2.5 2.7 4.5 5.1 4.5 5.5 0 .3 1.1 1.6 2.5 2.8 1.4 1.2 2.5 2.7 2.5 3.3 0 .5.4.8.9.4.5-.3 1.3.5 1.7 1.7.4 1.2 2.6 4.2 5 6.6 2.4 2.4 4.4 5 4.4 5.7 0 .7 1 2.2 2.3 3.2 1.2 1 3.2 3.4 4.4 5.3 2.5 4 6.8 8.1 7.7 7.3.3-.4.6.2.6 1.3 0 1 1.7 3.7 3.8 5.8 2 2.2 4.2 4.9 4.7 5.9.6 1.1 1.3 1.8 1.6 1.6.9-.6 3.9 2.2 3.4 3.1-.3.5.3 1.5 1.2 2.2 1 .7 1.9 2 2.1 2.8.5 2.3 3.3 5 4.5 4.3.6-.3.7-.1.3.5-.4.7-.1 1.2.8 1.2s1.3.6 1 1.3c-.6 1.5 7.3 10.7 9.2 10.7.8 0 1.1.6.8 1.4-.3.9.3 2 1.5 2.8 1.9 1.1 2.1 2.2 2.1 10.5s.2 9.3 2.2 11c1.3 1 2.4 2.5 2.6 3.3.1.8 2.5 3.6 5.2 6.3 2.7 2.6 4.6 4.7 4.3 4.7-.3 0 .2.9 1.2 2 1.9 2.1 5.5 2.7 5.5 1 0-.6 1.6-1 3.6-1 2.4 0 3.3-.4 2.8-1.2-.5-.8.3-.9 2.9-.5 2 .3 3.9.1 4.2-.4.4-.5 1.9-.9 3.6-.9 1.6 0 2.9-.5 2.9-1 0-.6 1.1-1 2.5-1s2.5-.5 2.5-1.1c0-.6 1.4-.9 3.3-.7l3.2.3v-6.8c0-5.7.3-6.7 1.8-6.7.9 0 1.7-.5 1.7-1 0-.6 1.6-1 3.5-1s3.5-.4 3.5-.9.8-.7 1.9-.4c1 .3 2.2 0 2.5-.6.4-.6 2.3-1.1 4.2-1.1 2.1 0 3.3-.4 2.9-1-.4-.6 1-1 3.5-1 2.9 0 3.9-.4 3.4-1.2-.5-.8.2-.9 2.4-.5 1.7.4 3.4.2 3.7-.3.3-.6 1.9-1 3.4-1s3.2-.5 3.8-1.1c1.2-1.2 11.3-.1 11.3 1.2 0 .5 1.6.9 3.5.9s3.5.4 3.5 1c0 .5 1.5 1 3.4 1s3.7.4 4 .9c.3.4 2.1.7 4.1.5 1.9-.1 3.5.2 3.5.7 0 .5 1.6.9 3.5.9s3.5.4 3.5 1c0 .5 1.6 1 3.5 1s3.5.5 3.5 1.1c0 .7 1.2 1 3 .7 1.7-.3 3-.1 3 .4 0 .4 1.6.8 3.5.8s3.5.4 3.5 1c0 .5 1.6 1 3.5 1s3.5.5 3.5 1.1c0 .7 1.2.9 3 .7 1.7-.3 3.3-.1 3.6.4.3.4 1.8.8 3.5.8 1.6 0 2.9.4 2.9 1 0 .5 2 1 4.5 1s4.5.4 4.5.9 3.4 1.2 7.5 1.6c4.6.4 7.5 1.1 7.5 1.8s.4.6.9-.2.7-2 .4-2.8c-.3-.7-.1-1.3.5-1.3.5 0 1.3-3.5 1.7-7.7.4-4.2 1.2-8.5 1.9-9.5.9-1.6.8-2.2-.6-3.2-1-.7-1.8-1.8-1.8-2.5 0-.6-.4-1.1-1-1.1-.5 0-1-1.8-1-4s.5-4 1-4c.6 0 1-1.8 1-4s.5-4 1-4c.6 0 1-2.1 1-4.6 0-4.5 0-4.6 2.9-3.9 1.7.3 3.2.2 3.6-.4.3-.6 1.7-1.1 3.1-1.1 1.4 0 2.2-.4 1.9-1-.4-.6 1-1 3.5-1 2.9 0 3.9-.4 3.4-1.2-.5-.8.2-.9 2.4-.5 1.7.4 3.4.2 3.7-.3.3-.6 2.2-1 4.1-1 1.9 0 3.4-.5 3.4-1 0-.6 1.6-1 3.6-1 1.9 0 3.3-.4 2.9-.9-.3-.5 2.4-1.3 6-1.6 3.6-.4 6.5-1.1 6.5-1.6s1.6-.9 3.5-.9 3.5-.4 3.5-.9 2.9-1.3 6.5-1.6c3.6-.4 6.5-1.1 6.5-1.6s1.6-.9 3.5-.9 3.5-.4 3.5-.9 2.5-1.3 5.5-1.6c3-.4 5.8-1.1 6.1-1.6.3-.5 1.8-.9 3.5-.9 1.6 0 2.9-.5 2.9-1 0-.6 1.2-1 2.6-1 2.6 0 2.7.1 2 4.6-.3 2.7-.2 4.3.4 3.9.5-.3 1.3.2 1.8 1.1.7 1.3 1.3 1.4 3 .5 1.1-.6 3.2-1.1 4.6-1.1 1.4 0 2.8-.5 3.1-1 .3-.6 1.9-1 3.6-1 1.6 0 2.9-.5 2.9-1.1 0-.6.7-.9 1.5-.5.8.3 2 0 2.7-.7.6-.7 2.4-1.1 3.9-.9 5.3.8 5.9-1 5.9-17.9 0-11.9.3-15 1.2-14.1.7.7 1.6 1.2 2 1.2 1.4 0 .9-3.7-.7-5-1.2-1-1.5-4.1-1.5-15.6 0-8.9.4-14.4 1-14.4s1-5.8 1-15.5.4-15.5 1-15.5 1-6.8 1-18.3c0-10.1.3-18.7.6-19 .4-.3.6-8.1.5-17.2-.2-11.1.1-16.5.8-16.5.7 0 1.1-5.7 1.1-17.1 0-11.1.3-16.8 1-16.4.7.4 1-5.3 1-16.4 0-12.1.3-17.1 1.1-17.1s1-1.9.6-6c-.5-5.5-.4-6 1.5-6 1.4 0 1.8-.5 1.4-1.5-.3-.9.3-2 1.4-2.7 1.2-.8 2-2.4 2-3.9 0-2.5 2.9-6.2 4.6-5.8 1.6.3 7.4-1.3 8-2.2.3-.5.9-.7 1.4-.4.5.3 1.2 0 1.6-.6.5-.8.2-1-.7-.5-.8.4-.7.1.2-.6.9-.7 1.9-2.2 2.1-3.3.2-1.1 1-1.9 1.6-1.7.7.1 1.1-.4 1-1-.2-.7.3-1.2 1-1 .6.1 1.2-.7 1.2-1.8s.5-2 1-2c.6 0 1-1.1 1-2.5s-.4-2.5-.9-2.5-1.1-1-1.3-2.3c-.2-1.2-.9-2.1-1.6-1.9-.6.1-1.1-.4-1-1 .2-.8-1-1.4-2.9-1.6-2.2-.2-4.2-1.5-6.3-3.9-2.5-2.8-4.1-3.7-7.6-4.1-2.4-.2-4.1-.8-3.8-1.3.3-.5 0-.9-.5-.9-1.3 0-1.5-8.6-.3-9.4.5-.3 1.2-5.6 1.6-11.8.4-7 1.1-11.5 1.9-12 1.5-1-1.8-3.8-4.5-3.8-1 0-1.8-.5-1.8-1 0-.6-1.1-1-2.4-1-1.4 0-2.8-.5-3.1-1-.4-.6-1.1-.8-1.6-.5-.5.4-.9.1-.9-.4 0-.6-1.1-1.1-2.4-1.1-1.3 0-2.6-.4-2.8-.9-.1-.6-2.2-1.4-4.5-1.9-4.3-1-4.3-1-4.3 1.9 0 1.6-.5 2.9-1.1 2.9-.7 0-.9 1-.7 2.5.4 1.9.1 2.5-1.3 2.5-1.1 0-1.9-.3-1.9-.8 0-.9-4.6-3-8.8-3.8-1.7-.4-3.2-1-3.2-1.5s-.7-.9-1.5-.9-1.5-.4-1.5-1c0-.5-1.6-1.2-3.5-1.6-1.9-.3-3.5-1-3.5-1.5s-1.1-.9-2.5-.9-2.5-.4-2.5-.9-1.3-1.2-3-1.6c-1.6-.4-3-1.1-3-1.6s-.9-.9-2-.9-2-.4-2-.9-1.3-1.2-3-1.6c-1.6-.4-3.2-1.1-3.5-1.6-.4-.5-1.7-.9-3.1-.9-1.3 0-2.4-.4-2.4-.9s-1.3-1.2-3-1.6c-1.6-.4-3-1.1-3-1.6s-.9-.9-2-.9-2-.4-2-.9c0-.9-3.2-2.3-6-2.6-1.8-.3-5.3-1.7-6-2.4-1.2-1.5-5.2-3.1-6-2.6-.6.4-1 .2-1-.4 0-1.1-7.5-5.1-9.4-5.1-.6 0-5.4-2.3-10.8-5-5.4-2.8-10.6-5-11.7-5-1.1 0-2.1-.4-2.3-.8-.5-1.3-24.1-12.7-25.5-12.4-1 .2-1.3-1.8-1.3-7.7 0-6.7-.2-7.9-1.5-7.5-.8.4-1.5.2-1.5-.2 0-.8-1.6-1.7-7.5-3.9-2.2-.9-5.7-.7-6.5.4-.7.9-6.9.8-6.3-.1.2-.5-.2-.8-1-.8-1.6 0-1.1-6.1.7-7.2.6-.4-.1-.8-1.6-.8-2.5 0-2.7.3-3 4.7zM169 36c0 .5-.4 1-.9 1-.6 0-1.3-.5-1.6-1-.3-.6.1-1 .9-1 .9 0 1.6.4 1.6 1zm315.7 107.2c-.2.7-1 1.2-1.6 1-.6-.1-1 .2-.8.7.1.5-.2 1.1-.8 1.2-.5.2-1.1-.6-1.3-1.9-.3-1.8.1-2.2 2.3-2.2 1.7 0 2.5.4 2.2 1.2z"/></svg>